<?xml version="1.0" standalone="no"?>
<svg viewBox="0 0 600 600" xmlns="http://www.w3.org/2000/svg">
  <path fill="#361E60" d="M49,-73.8C63.8,-66.8,76.1,-53.6,82.2,-38.2C88.3,-22.7,88.1,-5,83,10C77.8,25,67.6,37.4,57.3,50.2C47,63,36.7,76.3,23.2,81.2C9.8,86.1,-6.7,82.6,-21.9,77.1C-37.2,71.5,-51.1,64,-60.8,52.7C-70.5,41.5,-75.9,26.6,-77.1,11.7C-78.3,-3.2,-75.3,-18.1,-68.9,-31.2C-62.5,-44.4,-52.8,-55.7,-40.8,-64C-28.8,-72.2,-14.4,-77.3,1.4,-79.5C17.2,-81.6,34.3,-80.9,49,-73.8Z" transform="translate(100 100)" />
</svg>
