<?xml version="1.0" standalone="no"?><svg xmlns="http://www.w3.org/2000/svg" viewBox="0 0 1440 320"><path fill="#361E60" fill-opacity="1" d="M0,192L21.8,202.7C43.6,213,87,235,131,234.7C174.5,235,218,213,262,192C305.5,171,349,149,393,154.7C436.4,160,480,192,524,202.7C567.3,213,611,203,655,218.7C698.2,235,742,277,785,282.7C829.1,288,873,256,916,224C960,192,1004,160,1047,170.7C1090.9,181,1135,235,1178,250.7C1221.8,267,1265,245,1309,245.3C1352.7,245,1396,267,1418,277.3L1440,288L1440,0L1418.2,0C1396.4,0,1353,0,1309,0C1265.5,0,1222,0,1178,0C1134.5,0,1091,0,1047,0C1003.6,0,960,0,916,0C872.7,0,829,0,785,0C741.8,0,698,0,655,0C610.9,0,567,0,524,0C480,0,436,0,393,0C349.1,0,305,0,262,0C218.2,0,175,0,131,0C87.3,0,44,0,22,0L0,0Z"></path></svg>